<svg width="94" height="94" viewBox="0 0 94 94" fill="none" xmlns="http://www.w3.org/2000/svg">
<circle cx="46.9313" cy="46.9313" r="46.9313" fill="#523A33"/>
<path d="M64.203 46.4864C65.0182 44.8735 64.6807 42.959 63.3629 41.7222L61.4504 39.9271C61.0092 39.5131 60.7396 39.0459 60.6015 38.4567L60.0032 35.903C59.5911 34.1434 58.1018 32.8937 56.2973 32.7934L53.6784 32.6477C53.0743 32.6141 52.5673 32.4296 52.083 32.067L49.9831 30.4952C48.5365 29.4123 46.5923 29.4122 45.1455 30.4952L43.0456 32.067C42.5613 32.4296 42.0542 32.6141 41.4502 32.6477L38.8313 32.7934C37.0269 32.8937 35.5376 34.1434 35.1254 35.903L34.5271 38.4568C34.3891 39.0459 34.1194 39.5131 33.6783 39.9272L31.7656 41.7222C30.4479 42.959 30.1103 44.8735 30.9256 46.4864L32.1089 48.8273C32.3819 49.3673 32.4756 49.8985 32.4037 50.4993L32.0924 53.1037C31.878 54.8981 32.85 56.5817 34.5112 57.2933L36.9224 58.3259C37.4785 58.5641 37.8918 58.9108 38.223 59.4171L39.6587 61.6124C40.6477 63.1248 42.4745 63.7898 44.2046 63.2669L46.7154 62.5082C47.2946 62.3331 47.834 62.3331 48.4131 62.5082L50.9239 63.2669C51.3175 63.3859 51.716 63.4434 52.1086 63.4433C53.4416 63.4433 54.7057 62.7807 55.4697 61.6124L56.9055 59.4171C57.2366 58.9108 57.6499 58.564 58.206 58.3258L60.6172 57.2932C62.2784 56.5817 63.2505 54.898 63.036 53.1037L62.7247 50.4992C62.6529 49.8985 62.7466 49.3671 63.0195 48.8272L64.203 46.4864ZM62.0361 48.3302C61.6658 49.0628 61.5331 49.8151 61.6306 50.6301L61.9419 53.2345C62.1003 54.5594 61.41 55.7549 60.1835 56.2802L57.7723 57.3129C57.0177 57.6361 56.4325 58.1271 55.9832 58.814L54.5475 61.0093C53.8173 62.1259 52.5199 62.598 51.2428 62.212L48.732 61.4533C48.3391 61.3345 47.9518 61.2752 47.5643 61.2752C47.1769 61.2752 46.7894 61.3345 46.3966 61.4533L43.8858 62.212C42.6086 62.598 41.3114 62.1259 40.5811 61.0093L39.1454 58.814C38.696 58.127 38.1108 57.636 37.3563 57.3129L34.9451 56.2802C33.7185 55.755 33.0283 54.5594 33.1867 53.2345L33.498 50.6301C33.5955 49.815 33.4628 49.0628 33.0924 48.3301L31.9091 45.9892C31.3072 44.7984 31.5469 43.439 32.5198 42.5258L34.4324 40.7307C35.0309 40.169 35.4128 39.5074 35.6001 38.7082L36.1984 36.1543C36.5027 34.8552 37.5602 33.9678 38.8925 33.8938L41.5113 33.7481C42.3309 33.7025 43.0488 33.4412 43.706 32.9493L45.8058 31.3775C46.874 30.5779 48.2545 30.5779 49.3227 31.3775L51.4226 32.9493C52.0797 33.4412 52.7977 33.7025 53.6172 33.7481L56.236 33.8938C57.5684 33.9679 58.6258 34.8552 58.9301 36.1544L59.5285 38.7082C59.7157 39.5075 60.0977 40.1691 60.6962 40.7307L62.6087 42.5258C63.5816 43.4389 63.8213 44.7984 63.2194 45.9892L62.0361 48.3302ZM47.5644 35.2974C41.3528 35.2974 36.2995 40.3508 36.2995 46.5623C36.2995 52.7738 41.3528 57.8272 47.5644 57.8272C53.7759 57.8272 58.8293 52.7738 58.8293 46.5623C58.8293 40.3508 53.7759 35.2974 47.5644 35.2974ZM47.5644 56.7251C41.9606 56.7251 37.4015 52.1661 37.4015 46.5623C37.4015 40.9585 41.9606 36.3995 47.5644 36.3995C53.1682 36.3995 57.7272 40.9585 57.7272 46.5623C57.7272 52.1661 53.1682 56.7251 47.5644 56.7251ZM52.2545 41.4563C52.2519 41.4563 52.249 41.4563 52.2463 41.4563C51.6957 41.4584 51.1793 41.6748 50.7924 42.0657L46.2229 46.6807L44.3358 44.7935C43.9461 44.4038 43.4278 44.1891 42.8765 44.1891C42.3251 44.1891 41.807 44.4038 41.4172 44.7936C40.6126 45.5982 40.6126 46.9075 41.4172 47.712L44.7689 51.0638C45.1712 51.466 45.6997 51.6672 46.2282 51.6672C46.7567 51.6672 47.2852 51.4661 47.6875 51.0638C48.9583 49.7929 50.2404 48.4924 51.4805 47.2347C52.2255 46.4789 52.9707 45.7231 53.7177 44.9692C54.5168 44.1628 54.5126 42.856 53.7083 42.0562C53.3192 41.6691 52.8032 41.4563 52.2545 41.4563ZM52.9349 44.1934C52.1872 44.9481 51.4414 45.7045 50.6956 46.4609C49.457 47.7173 48.1762 49.0164 46.9082 50.2844C46.5332 50.6594 45.923 50.6594 45.5482 50.2844L42.1965 46.9327C41.8216 46.5578 41.8216 45.9476 42.1965 45.5726C42.3781 45.3911 42.6196 45.2911 42.8765 45.2911C43.1334 45.2911 43.3749 45.3911 43.5565 45.5726L45.8352 47.8514C45.9386 47.9548 46.0787 48.0128 46.2249 48.0128H46.2262C46.3729 48.0125 46.5133 47.9537 46.6164 47.8495L51.5756 42.841C51.7551 42.6596 51.9949 42.5592 52.2506 42.5582H52.2545C52.5099 42.5582 52.7501 42.6573 52.9313 42.8374C53.3054 43.2096 53.307 43.8178 52.9349 44.1934Z" fill="white"/>
</svg>
