<svg width="100" height="100" viewBox="0 0 100 100" fill="none" xmlns="http://www.w3.org/2000/svg">
<circle cx="50" cy="50" r="50" fill="#243C40"/>
<path d="M48.625 74C48.3939 74 48.1628 73.9178 47.9768 73.7552C47.2835 73.1423 31 58.6153 31 44.625C31 34.9058 38.9078 27 48.625 27C58.3423 27 66.25 34.9058 66.25 44.625C66.25 58.6153 49.9665 73.1423 49.2732 73.7552C49.0872 73.9178 48.8561 74 48.625 74ZM48.625 28.9583C39.9868 28.9583 32.9583 35.9868 32.9583 44.625C32.9583 56.2144 45.5915 68.8261 48.625 71.6872C51.6585 68.8261 64.2917 56.2144 64.2917 44.625C64.2917 35.9868 57.2632 28.9583 48.625 28.9583Z" fill="white"/>
<path d="M48.6249 54.4167C43.2258 54.4167 38.8333 50.0242 38.8333 44.625C38.8333 39.2259 43.2258 34.8334 48.6249 34.8334C54.024 34.8334 58.4166 39.2259 58.4166 44.625C58.4166 50.0242 54.024 54.4167 48.6249 54.4167ZM48.6249 36.7917C44.3048 36.7917 40.7916 40.305 40.7916 44.625C40.7916 48.9451 44.3048 52.4584 48.6249 52.4584C52.945 52.4584 56.4583 48.9451 56.4583 44.625C56.4583 40.305 52.945 36.7917 48.6249 36.7917Z" fill="white"/>
</svg>
