<svg width="151" height="162" viewBox="0 0 151 162" fill="none" xmlns="http://www.w3.org/2000/svg">
<circle cx="76" cy="50" r="50" fill="#243C40"/>
<path d="M77.797 31.6239C86.4724 31.6239 93.5301 38.6816 93.5301 47.3569" stroke="white" stroke-width="1.49434" stroke-miterlimit="10" stroke-linecap="round" stroke-linejoin="round"/>
<path d="M77.797 36.1188C83.9933 36.1188 89.0352 41.1607 89.0352 47.3569" stroke="white" stroke-width="1.49434" stroke-miterlimit="10" stroke-linecap="round" stroke-linejoin="round"/>
<path d="M77.797 40.6146C81.515 40.6146 84.5395 43.639 84.5395 47.3569" stroke="white" stroke-width="1.49434" stroke-miterlimit="10" stroke-linecap="round" stroke-linejoin="round"/>
<path d="M77.797 45.1094C79.038 45.1094 80.0445 46.116 80.0445 47.3569" stroke="white" stroke-width="1.49434" stroke-miterlimit="10" stroke-linecap="round" stroke-linejoin="round"/>
<path d="M69.2783 55.8469C69.6703 55.8469 69.9881 55.5291 69.9881 55.1371C69.9881 54.7452 69.6703 54.4273 69.2783 54.4273C68.8863 54.4273 68.5685 54.7452 68.5685 55.1371C68.5685 55.5291 68.8863 55.8469 69.2783 55.8469Z" fill="white" stroke="white" stroke-width="0.0747169"/>
<path d="M67.0948 52.5817C66.6208 51.9591 66.1716 51.3162 65.7485 50.6542C65.1927 49.7838 65.3608 48.6309 66.0907 47.901L68.6275 45.3642C69.1736 44.8189 69.1736 43.9335 68.6275 43.388L62.6575 37.4182C62.1121 36.8719 61.2267 36.8719 60.6813 37.4182L59.1705 38.9289C56.7183 41.3804 56.0556 45.1222 57.5948 48.2289C60.3331 53.7572 65.9683 62.2316 76.8246 67.5552C79.9411 69.0825 83.7001 68.4347 86.1538 65.981L87.699 64.4357C88.2451 63.8904 88.2451 63.005 87.699 62.4587L81.729 56.4897C81.1836 55.9434 80.2982 55.9434 79.7528 56.4897L77.2162 59.0263C76.4861 59.7562 75.3333 59.9243 74.4628 59.3685C73.5211 58.7667 72.6174 58.1116 71.7559 57.4072" stroke="white" stroke-width="1.49434" stroke-miterlimit="10" stroke-linecap="round" stroke-linejoin="round"/>
<path d="M6.08916 151V140.8L7.38916 140.75L2.38916 144.05L1.61416 142.725L6.93916 139.35H7.81416V151H6.08916ZM18.1546 142.675C18.7546 142.292 19.2546 141.833 19.6546 141.3C20.0546 140.75 20.2546 140.133 20.2546 139.45C20.2546 138.767 20.0129 138.208 19.5296 137.775C19.0463 137.342 18.3879 137.125 17.5546 137.125C16.7879 137.125 16.1629 137.325 15.6796 137.725C15.1963 138.125 14.9546 138.658 14.9546 139.325C14.9546 139.858 15.0879 140.3 15.3546 140.65C15.6379 141 16.0046 141.308 16.4546 141.575C16.9213 141.825 17.4213 142.058 17.9546 142.275C18.5046 142.492 19.0546 142.725 19.6046 142.975C20.1546 143.208 20.6546 143.492 21.1046 143.825C21.5713 144.158 21.9379 144.567 22.2046 145.05C22.4879 145.533 22.6296 146.117 22.6296 146.8C22.6296 147.65 22.4129 148.4 21.9796 149.05C21.5629 149.7 20.9713 150.208 20.2046 150.575C19.4379 150.942 18.5296 151.125 17.4796 151.125C16.5296 151.125 15.6796 150.975 14.9296 150.675C14.1963 150.358 13.6129 149.908 13.1796 149.325C12.7629 148.742 12.5546 148.05 12.5546 147.25C12.5546 146.267 12.8713 145.367 13.5046 144.55C14.1546 143.733 15.0379 143.033 16.1546 142.45L16.8546 143.075C16.0213 143.542 15.3546 144.108 14.8546 144.775C14.3713 145.425 14.1296 146.133 14.1296 146.9C14.1296 147.533 14.2879 148.075 14.6046 148.525C14.9213 148.958 15.3546 149.292 15.9046 149.525C16.4713 149.742 17.0879 149.85 17.7546 149.85C18.8546 149.85 19.6796 149.583 20.2296 149.05C20.7796 148.517 21.0546 147.867 21.0546 147.1C21.0546 146.5 20.9129 146.008 20.6296 145.625C20.3463 145.225 19.9796 144.883 19.5296 144.6C19.0796 144.3 18.5796 144.042 18.0296 143.825C17.4963 143.592 16.9546 143.358 16.4046 143.125C15.8546 142.875 15.3463 142.6 14.8796 142.3C14.4296 141.983 14.0629 141.608 13.7796 141.175C13.5129 140.725 13.3796 140.175 13.3796 139.525C13.3796 138.808 13.5546 138.175 13.9046 137.625C14.2713 137.075 14.7879 136.642 15.4546 136.325C16.1213 136.008 16.8963 135.85 17.7796 135.85C18.6129 135.85 19.3296 135.992 19.9296 136.275C20.5296 136.542 20.9963 136.917 21.3296 137.4C21.6629 137.883 21.8296 138.45 21.8296 139.1C21.8296 139.983 21.5463 140.783 20.9796 141.5C20.4296 142.2 19.7213 142.8 18.8546 143.3L18.1546 142.675ZM31.3005 151.125C30.1172 151.125 29.0672 150.867 28.1505 150.35C27.2338 149.833 26.5088 149.125 25.9755 148.225C25.4588 147.325 25.2005 146.308 25.2005 145.175C25.2005 144.025 25.4672 143.008 26.0005 142.125C26.5338 141.225 27.2672 140.517 28.2005 140C29.1338 139.483 30.1838 139.225 31.3505 139.225C32.5338 139.225 33.5838 139.483 34.5005 140C35.4172 140.517 36.1422 141.225 36.6755 142.125C37.2088 143.008 37.4755 144.017 37.4755 145.15C37.4755 146.3 37.2005 147.325 36.6505 148.225C36.1172 149.125 35.3838 149.833 34.4505 150.35C33.5338 150.867 32.4838 151.125 31.3005 151.125ZM31.3005 149.75C32.1672 149.75 32.9338 149.558 33.6005 149.175C34.2838 148.775 34.8172 148.233 35.2005 147.55C35.5838 146.85 35.7755 146.058 35.7755 145.175C35.7755 144.308 35.5838 143.533 35.2005 142.85C34.8338 142.15 34.3172 141.6 33.6505 141.2C32.9838 140.8 32.2172 140.6 31.3505 140.6C30.5172 140.6 29.7588 140.8 29.0755 141.2C28.3922 141.583 27.8505 142.117 27.4505 142.8C27.0505 143.483 26.8505 144.267 26.8505 145.15C26.8505 146.017 27.0422 146.8 27.4255 147.5C27.8088 148.2 28.3338 148.75 29.0005 149.15C29.6838 149.55 30.4505 149.75 31.3005 149.75ZM46.0983 151.125C44.915 151.125 43.865 150.867 42.9483 150.35C42.0317 149.833 41.3067 149.125 40.7733 148.225C40.2567 147.325 39.9983 146.308 39.9983 145.175C39.9983 144.025 40.265 143.008 40.7983 142.125C41.3317 141.225 42.065 140.517 42.9983 140C43.9317 139.483 44.9817 139.225 46.1483 139.225C47.3317 139.225 48.3817 139.483 49.2983 140C50.215 140.517 50.94 141.225 51.4733 142.125C52.0067 143.008 52.2733 144.017 52.2733 145.15C52.2733 146.3 51.9983 147.325 51.4483 148.225C50.915 149.125 50.1817 149.833 49.2483 150.35C48.3317 150.867 47.2817 151.125 46.0983 151.125ZM46.0983 149.75C46.965 149.75 47.7317 149.558 48.3983 149.175C49.0817 148.775 49.615 148.233 49.9983 147.55C50.3817 146.85 50.5733 146.058 50.5733 145.175C50.5733 144.308 50.3817 143.533 49.9983 142.85C49.6317 142.15 49.115 141.6 48.4483 141.2C47.7817 140.8 47.015 140.6 46.1483 140.6C45.315 140.6 44.5567 140.8 43.8733 141.2C43.19 141.583 42.6483 142.117 42.2483 142.8C41.8483 143.483 41.6483 144.267 41.6483 145.15C41.6483 146.017 41.84 146.8 42.2233 147.5C42.6067 148.2 43.1317 148.75 43.7983 149.15C44.4817 149.55 45.2483 149.75 46.0983 149.75ZM54.5212 146.225L54.4212 144.725L62.0462 143.675L62.1462 145.175L54.5212 146.225ZM64.3724 150.1C65.939 149.033 67.2224 148.092 68.2224 147.275C69.239 146.458 69.989 145.708 70.4724 145.025C70.9724 144.325 71.2224 143.65 71.2224 143C71.2224 142.367 70.9974 141.825 70.5474 141.375C70.0974 140.925 69.4307 140.7 68.5474 140.7C67.9307 140.7 67.3057 140.858 66.6724 141.175C66.039 141.492 65.514 142.017 65.0974 142.75L64.2224 141.95C64.789 141 65.489 140.308 66.3224 139.875C67.1557 139.442 68.039 139.225 68.9724 139.225C69.8724 139.225 70.614 139.392 71.1974 139.725C71.7807 140.058 72.214 140.492 72.4974 141.025C72.7807 141.558 72.9224 142.108 72.9224 142.675C72.9224 143.292 72.764 143.908 72.4474 144.525C72.1474 145.125 71.6974 145.733 71.0974 146.35C70.514 146.967 69.814 147.592 68.9974 148.225C68.1974 148.858 67.2974 149.508 66.2974 150.175L66.3724 149.55H74.6724V151H64.6724L64.3724 150.1ZM77.5091 143.975C78.8257 143.992 79.9424 144.108 80.8591 144.325C81.7924 144.542 82.5424 144.85 83.1091 145.25C83.6757 145.633 84.0841 146.092 84.3341 146.625C84.6007 147.158 84.7341 147.742 84.7341 148.375C84.7341 149.158 84.5591 149.875 84.2091 150.525C83.8757 151.175 83.3841 151.758 82.7341 152.275C82.0841 152.808 81.2924 153.267 80.3591 153.65C79.4424 154.033 78.3924 154.35 77.2091 154.6L76.8341 153.425C78.9007 152.892 80.4507 152.225 81.4841 151.425C82.5341 150.625 83.0591 149.692 83.0591 148.625C83.0591 147.492 82.5507 146.667 81.5341 146.15C80.5341 145.633 78.9924 145.383 76.9091 145.4L77.5341 139.45L84.6841 139.1L84.5591 140.625L78.0841 140.85L78.7591 140.1L78.3091 144.475L77.5091 143.975ZM88.4251 143.975C89.7418 143.992 90.8584 144.108 91.7751 144.325C92.7084 144.542 93.4584 144.85 94.0251 145.25C94.5918 145.633 95.0001 146.092 95.2501 146.625C95.5168 147.158 95.6501 147.742 95.6501 148.375C95.6501 149.158 95.4751 149.875 95.1251 150.525C94.7918 151.175 94.3001 151.758 93.6501 152.275C93.0001 152.808 92.2084 153.267 91.2751 153.65C90.3584 154.033 89.3084 154.35 88.1251 154.6L87.7501 153.425C89.8168 152.892 91.3668 152.225 92.4001 151.425C93.4501 150.625 93.9751 149.692 93.9751 148.625C93.9751 147.492 93.4668 146.667 92.4501 146.15C91.4501 145.633 89.9084 145.383 87.8251 145.4L88.4501 139.45L95.6001 139.1L95.4751 140.625L89.0001 140.85L89.6751 140.1L89.2251 144.475L88.4251 143.975ZM97.9411 146.225L97.8411 144.725L105.466 143.675L105.566 145.175L97.9411 146.225ZM113.767 151.125C112.584 151.125 111.534 150.867 110.617 150.35C109.701 149.833 108.976 149.125 108.442 148.225C107.926 147.325 107.667 146.308 107.667 145.175C107.667 144.025 107.934 143.008 108.467 142.125C109.001 141.225 109.734 140.517 110.667 140C111.601 139.483 112.651 139.225 113.817 139.225C115.001 139.225 116.051 139.483 116.967 140C117.884 140.517 118.609 141.225 119.142 142.125C119.676 143.008 119.942 144.017 119.942 145.15C119.942 146.3 119.667 147.325 119.117 148.225C118.584 149.125 117.851 149.833 116.917 150.35C116.001 150.867 114.951 151.125 113.767 151.125ZM113.767 149.75C114.634 149.75 115.401 149.558 116.067 149.175C116.751 148.775 117.284 148.233 117.667 147.55C118.051 146.85 118.242 146.058 118.242 145.175C118.242 144.308 118.051 143.533 117.667 142.85C117.301 142.15 116.784 141.6 116.117 141.2C115.451 140.8 114.684 140.6 113.817 140.6C112.984 140.6 112.226 140.8 111.542 141.2C110.859 141.583 110.317 142.117 109.917 142.8C109.517 143.483 109.317 144.267 109.317 145.15C109.317 146.017 109.509 146.8 109.892 147.5C110.276 148.2 110.801 148.75 111.467 149.15C112.151 149.55 112.917 149.75 113.767 149.75ZM128.565 151.125C127.382 151.125 126.332 150.867 125.415 150.35C124.498 149.833 123.773 149.125 123.24 148.225C122.723 147.325 122.465 146.308 122.465 145.175C122.465 144.025 122.732 143.008 123.265 142.125C123.798 141.225 124.532 140.517 125.465 140C126.398 139.483 127.448 139.225 128.615 139.225C129.798 139.225 130.848 139.483 131.765 140C132.682 140.517 133.407 141.225 133.94 142.125C134.473 143.008 134.74 144.017 134.74 145.15C134.74 146.3 134.465 147.325 133.915 148.225C133.382 149.125 132.648 149.833 131.715 150.35C130.798 150.867 129.748 151.125 128.565 151.125ZM128.565 149.75C129.432 149.75 130.198 149.558 130.865 149.175C131.548 148.775 132.082 148.233 132.465 147.55C132.848 146.85 133.04 146.058 133.04 145.175C133.04 144.308 132.848 143.533 132.465 142.85C132.098 142.15 131.582 141.6 130.915 141.2C130.248 140.8 129.482 140.6 128.615 140.6C127.782 140.6 127.023 140.8 126.34 141.2C125.657 141.583 125.115 142.117 124.715 142.8C124.315 143.483 124.115 144.267 124.115 145.15C124.115 146.017 124.307 146.8 124.69 147.5C125.073 148.2 125.598 148.75 126.265 149.15C126.948 149.55 127.715 149.75 128.565 149.75ZM143.363 151.125C142.18 151.125 141.13 150.867 140.213 150.35C139.296 149.833 138.571 149.125 138.038 148.225C137.521 147.325 137.263 146.308 137.263 145.175C137.263 144.025 137.53 143.008 138.063 142.125C138.596 141.225 139.33 140.517 140.263 140C141.196 139.483 142.246 139.225 143.413 139.225C144.596 139.225 145.646 139.483 146.563 140C147.48 140.517 148.205 141.225 148.738 142.125C149.271 143.008 149.538 144.017 149.538 145.15C149.538 146.3 149.263 147.325 148.713 148.225C148.18 149.125 147.446 149.833 146.513 150.35C145.596 150.867 144.546 151.125 143.363 151.125ZM143.363 149.75C144.23 149.75 144.996 149.558 145.663 149.175C146.346 148.775 146.88 148.233 147.263 147.55C147.646 146.85 147.838 146.058 147.838 145.175C147.838 144.308 147.646 143.533 147.263 142.85C146.896 142.15 146.38 141.6 145.713 141.2C145.046 140.8 144.28 140.6 143.413 140.6C142.58 140.6 141.821 140.8 141.138 141.2C140.455 141.583 139.913 142.117 139.513 142.8C139.113 143.483 138.913 144.267 138.913 145.15C138.913 146.017 139.105 146.8 139.488 147.5C139.871 148.2 140.396 148.75 141.063 149.15C141.746 149.55 142.513 149.75 143.363 149.75Z" fill="#243C40"/>
</svg>
