<svg width="64" height="64" viewBox="0 0 64 64" fill="none" xmlns="http://www.w3.org/2000/svg">
<circle cx="31.6366" cy="31.6366" r="31.6366" fill="#1E1E1E"/>
<path d="M35.3269 13.8409C44.1914 13.8409 51.403 21.0526 51.403 29.917" stroke="white" stroke-width="1.52692" stroke-miterlimit="10" stroke-linecap="round" stroke-linejoin="round"/>
<path d="M35.3269 18.4338C41.6583 18.4338 46.8101 23.5856 46.8101 29.917" stroke="white" stroke-width="1.52692" stroke-miterlimit="10" stroke-linecap="round" stroke-linejoin="round"/>
<path d="M35.3269 23.0276C39.1259 23.0276 42.2163 26.118 42.2163 29.917" stroke="white" stroke-width="1.52692" stroke-miterlimit="10" stroke-linecap="round" stroke-linejoin="round"/>
<path d="M35.3269 27.6205C36.595 27.6205 37.6234 28.649 37.6234 29.917" stroke="white" stroke-width="1.52692" stroke-miterlimit="10" stroke-linecap="round" stroke-linejoin="round"/>
<path d="M26.6226 38.5917C27.0232 38.5917 27.3479 38.267 27.3479 37.8664C27.3479 37.4659 27.0232 37.1411 26.6226 37.1411C26.2221 37.1411 25.8973 37.4659 25.8973 37.8664C25.8973 38.267 26.2221 38.5917 26.6226 38.5917Z" fill="white" stroke="white" stroke-width="0.0763458"/>
<path d="M24.3914 35.2555C23.9071 34.6193 23.4481 33.9623 23.0158 33.2859C22.4479 32.3966 22.6197 31.2186 23.3655 30.4727L25.9575 27.8806C26.5155 27.3234 26.5155 26.4187 25.9575 25.8613L19.8574 19.7613C19.3001 19.2032 18.3955 19.2032 17.8381 19.7613L16.2943 21.305C13.7887 23.81 13.1116 27.6333 14.6843 30.8077C17.4824 36.4566 23.2404 45.1157 34.3334 50.5553C37.5178 52.1159 41.3587 51.454 43.8659 48.9468L45.4448 47.3679C46.0028 46.8107 46.0028 45.906 45.4448 45.3478L39.3447 39.2486C38.7873 38.6904 37.8827 38.6904 37.3254 39.2486L34.7334 41.8405C33.9875 42.5864 32.8095 42.7581 31.92 42.1902C30.9578 41.5752 30.0344 40.9059 29.1542 40.1861" stroke="white" stroke-width="1.52692" stroke-miterlimit="10" stroke-linecap="round" stroke-linejoin="round"/>
</svg>
