<svg width="100" height="100" viewBox="0 0 100 100" fill="none" xmlns="http://www.w3.org/2000/svg">
<circle cx="50" cy="50" r="50" fill="#243C40"/>
<path d="M51.797 31.6239C60.4724 31.6239 67.5301 38.6816 67.5301 47.3569" stroke="white" stroke-width="1.49434" stroke-miterlimit="10" stroke-linecap="round" stroke-linejoin="round"/>
<path d="M51.797 36.1188C57.9933 36.1188 63.0352 41.1607 63.0352 47.3569" stroke="white" stroke-width="1.49434" stroke-miterlimit="10" stroke-linecap="round" stroke-linejoin="round"/>
<path d="M51.797 40.6146C55.515 40.6146 58.5395 43.639 58.5395 47.3569" stroke="white" stroke-width="1.49434" stroke-miterlimit="10" stroke-linecap="round" stroke-linejoin="round"/>
<path d="M51.797 45.1094C53.038 45.1094 54.0445 46.116 54.0445 47.3569" stroke="white" stroke-width="1.49434" stroke-miterlimit="10" stroke-linecap="round" stroke-linejoin="round"/>
<path d="M43.2783 55.8469C43.6703 55.8469 43.9881 55.5291 43.9881 55.1371C43.9881 54.7452 43.6703 54.4273 43.2783 54.4273C42.8863 54.4273 42.5685 54.7452 42.5685 55.1371C42.5685 55.5291 42.8863 55.8469 43.2783 55.8469Z" fill="white" stroke="white" stroke-width="0.0747169"/>
<path d="M41.0948 52.5817C40.6208 51.9591 40.1716 51.3162 39.7485 50.6542C39.1927 49.7838 39.3608 48.6309 40.0907 47.901L42.6275 45.3642C43.1736 44.8189 43.1736 43.9335 42.6275 43.388L36.6575 37.4182C36.1121 36.8719 35.2267 36.8719 34.6813 37.4182L33.1705 38.9289C30.7183 41.3804 30.0556 45.1222 31.5948 48.2289C34.3331 53.7572 39.9683 62.2316 50.8246 67.5552C53.9411 69.0825 57.7001 68.4347 60.1538 65.981L61.699 64.4357C62.2451 63.8904 62.2451 63.005 61.699 62.4587L55.729 56.4897C55.1836 55.9434 54.2982 55.9434 53.7528 56.4897L51.2162 59.0263C50.4861 59.7562 49.3333 59.9243 48.4628 59.3685C47.5211 58.7667 46.6174 58.1116 45.7559 57.4072" stroke="white" stroke-width="1.49434" stroke-miterlimit="10" stroke-linecap="round" stroke-linejoin="round"/>
</svg>
