<svg width="31" height="28" viewBox="0 0 31 28" fill="none" xmlns="http://www.w3.org/2000/svg">
<path d="M10.4634 6.36921H28.1842L18.504 13.9709C18.2989 14.1318 18.0548 14.2104 17.8335 14.2319C17.6106 14.21 17.3658 14.1314 17.1584 13.9709L10.2405 8.53652C10.1672 8.47759 10.0845 8.43263 9.99343 8.40468C10.3191 7.9453 10.5049 7.38959 10.4951 6.79081C10.4932 6.65368 10.4811 6.51239 10.4634 6.36921ZM5.95688 1.48039C5.97917 1.48417 6.01581 1.49815 6.09552 1.53517C6.25305 1.60997 6.50352 1.80263 6.7487 2.07123C7.24246 2.60919 7.73583 3.42406 7.99197 3.96201C7.9999 3.97788 8.00821 3.99526 8.01577 4.01301C8.74261 5.26006 9.05617 6.21395 9.06561 6.81235C9.07581 7.41339 8.9145 7.67217 8.40488 7.96495L7.09021 8.72277C6.23379 9.21577 5.82919 10.0994 5.7287 10.9237C5.62783 11.7484 5.7763 12.5497 6.14312 13.1832L9.38823 18.7762C9.75581 19.4093 10.3833 19.939 11.1506 20.2643C11.9186 20.5903 12.8899 20.6825 13.7463 20.1906L15.0609 19.4343C15.5702 19.1423 15.8781 19.1362 16.3953 19.4437C16.9139 19.752 17.5875 20.4966 18.3113 21.7444C18.3215 21.7629 18.3314 21.7784 18.3431 21.7961C18.6823 22.2854 19.1443 23.1153 19.3672 23.8105C19.4779 24.1557 19.5214 24.4678 19.5074 24.6404C19.4919 24.8138 19.4881 24.7961 19.4424 24.8233L18.4421 25.3967C15.9291 26.4866 13.6258 26.2407 11.5673 25.1731C9.50496 24.101 7.71241 22.1649 6.46272 19.8918C6.45857 19.8872 6.45668 19.8816 6.45328 19.8785L3.7159 15.1609C3.71136 15.1563 3.70948 15.1522 3.7057 15.1461C2.35136 12.9323 1.56219 10.419 1.66116 8.10661C1.76014 5.79763 2.69703 3.69266 4.90401 2.07312L5.90474 1.50155C5.92779 1.48832 5.93534 1.47812 5.95688 1.48039ZM5.96708 0.0746788C5.70225 0.0705232 5.43214 0.126057 5.18923 0.266968L4.13108 0.875568C4.10728 0.889168 4.08537 0.903145 4.06383 0.916745C1.51799 2.77995 0.345743 5.37377 0.231276 8.0473C0.116809 10.7197 1.00912 13.4779 2.48321 15.8892L5.21152 20.5907L5.2051 20.5767C6.56699 23.0515 8.51859 25.1984 10.9035 26.4353C13.2895 27.674 16.1319 27.9611 19.0272 26.6986C19.051 26.6884 19.0752 26.677 19.0967 26.6638L20.1564 26.0552C20.6464 25.7764 20.8927 25.2339 20.9327 24.7602C20.9739 24.288 20.8776 23.8282 20.7314 23.3753C20.445 22.4795 19.9456 21.6095 19.5331 21.0126C18.7537 19.6719 18.0012 18.7414 17.1315 18.2212C16.2551 17.6988 15.203 17.7063 14.3447 18.1997L13.03 18.9575C12.6417 19.1812 12.1876 19.1551 11.7097 18.953C11.2341 18.7509 10.7936 18.3467 10.63 18.0633L7.38488 12.4707C7.22092 12.1859 7.08681 11.6048 7.15028 11.0926C7.21148 10.5818 7.41888 10.1817 7.80761 9.95772L9.08488 9.22332C9.11812 9.39446 9.21483 9.54972 9.35499 9.65399L16.2732 15.0895C16.7232 15.4431 17.2562 15.6399 17.793 15.6709C17.8202 15.6724 17.8482 15.6724 17.8758 15.6709C18.413 15.6399 18.9434 15.4427 19.3937 15.0895L28.922 7.60417V19.9703C28.922 20.1585 28.7074 20.4063 28.2866 20.4063H21.6902C21.2931 20.404 20.9717 20.7244 20.9717 21.1192C20.9717 21.5132 21.2935 21.8335 21.6902 21.8313H28.2866C29.3647 21.8313 30.3557 21.0519 30.3557 19.9703V6.80517C30.3557 5.72283 29.3647 4.94386 28.2866 4.94386H10.0709C9.86914 4.43952 9.60281 3.90497 9.26734 3.32395C8.95341 2.67039 8.44417 1.80641 7.80685 1.11168C7.48499 0.75959 7.13781 0.447545 6.70374 0.245812V0.247701C6.48803 0.145701 6.23152 0.0803455 5.96708 0.0746788Z" fill="#1D1A15"/>
</svg>
