<svg width="100" height="100" viewBox="0 0 100 100" fill="none" xmlns="http://www.w3.org/2000/svg">
<circle cx="50" cy="50" r="50" fill="#243C40"/>
<path d="M68.846 36H31.1539C29.9692 36 29 36.9692 29 38.1538V61.8461C29 63.0306 29.9692 64 31.1539 64H68.8461C70.0306 64 71 63.0308 71 61.8461V38.1538C70.9999 36.9692 70.0307 36 68.846 36ZM68.0378 37.6153L51.239 50.2154C50.9369 50.4453 50.4733 50.5891 49.9999 50.5869C49.5266 50.5891 49.063 50.4453 48.7609 50.2154L31.9621 37.6153H68.0378ZM59.0644 51.0468L68.2182 62.3545C68.2274 62.3659 68.2387 62.3745 68.2484 62.3847H31.7515C31.7612 62.374 31.7725 62.3659 31.7817 62.3545L40.9355 51.0468C41.216 50.7001 41.1628 50.1917 40.8154 49.9106C40.4687 49.6301 39.9603 49.6833 39.6798 50.0301L30.6154 61.2274V38.6249L47.7922 51.5076C48.4378 51.9884 49.2234 52.2001 49.9998 52.2022C50.7752 52.2006 51.5613 51.9889 52.2074 51.5076L69.3842 38.6249V61.2273L60.32 50.0301C60.0395 49.6834 59.5307 49.63 59.1844 49.9106C58.8371 50.1911 58.7838 50.7001 59.0644 51.0468Z" fill="white"/>
</svg>
