<svg width="64" height="64" viewBox="0 0 64 64" fill="none" xmlns="http://www.w3.org/2000/svg">
<circle cx="31.6366" cy="31.6366" r="31.6366" fill="#1E1E1E"/>
<path d="M48.1537 20H15.8462C14.8307 20 14 20.8307 14 21.8461V42.1538C14 43.1691 14.8307 44 15.8462 44H48.1538C49.1691 44 50 43.1693 50 42.1538V21.8461C49.9999 20.8307 49.1692 20 48.1537 20ZM47.461 21.3845L33.062 32.1846C32.8031 32.3817 32.4057 32.5049 31.9999 32.5031C31.5942 32.5049 31.1969 32.3817 30.9379 32.1846L16.5389 21.3845H47.461ZM39.7695 32.8973L47.6156 42.5896C47.6235 42.5993 47.6331 42.6067 47.6415 42.6155H16.3584C16.3667 42.6063 16.3764 42.5993 16.3843 42.5896L24.2304 32.8973C24.4708 32.6 24.4253 32.1643 24.1275 31.9234C23.8303 31.683 23.3946 31.7285 23.1541 32.0258L15.3846 41.6235V22.2499L30.1076 33.2922C30.661 33.7044 31.3343 33.8858 31.9998 33.8876C32.6644 33.8862 33.3383 33.7048 33.8921 33.2922L48.6151 22.2499V41.6234L40.8458 32.0258C40.6053 31.7286 40.1691 31.6829 39.8724 31.9234C39.5746 32.1638 39.5289 32.6 39.7695 32.8973Z" fill="white"/>
</svg>
