<svg width="94" height="94" viewBox="0 0 94 94" fill="none" xmlns="http://www.w3.org/2000/svg">
<circle cx="46.9313" cy="46.9313" r="46.9313" fill="#523A33"/>
<path d="M70.4685 46.2977V46.2902L64.6511 37.417C64.123 36.6096 63.2251 36.1191 62.2517 36.1191H54.8573V33.0633C54.8573 31.1997 53.3407 29.683 51.4695 29.683H26.6605C24.7892 29.683 23.2651 31.1996 23.2651 33.0633V57.646C23.2651 58.6646 24.0951 59.4946 25.1213 59.4946H27.234C27.5131 61.5317 29.2561 63.1012 31.3612 63.1012C33.4739 63.1012 35.2169 61.5317 35.4961 59.4946H38.9216C39.2007 61.5317 40.9437 63.1012 43.0488 63.1012C45.1615 63.1012 46.9045 61.5317 47.1836 59.4946H59.2485C59.5277 61.5317 61.2707 63.1012 63.3834 63.1012C65.4886 63.1012 67.2315 61.5317 67.5107 59.4946H69.3291C70.3552 59.4946 71.1777 58.6646 71.1777 57.6384V48.6821C71.1778 47.8369 70.9363 47.0145 70.4685 46.2977ZM24.3969 33.0633C24.3969 31.8259 25.4155 30.8148 26.6605 30.8148H51.4695C52.7144 30.8148 53.7256 31.8259 53.7256 33.0633V52.0247H24.3969V33.0633ZM31.3611 61.9694C29.686 61.9694 28.328 60.6112 28.328 58.9286C28.328 57.2535 29.6861 55.8878 31.3611 55.8878C33.0437 55.8878 34.4019 57.2535 34.4019 58.9286C34.402 60.6112 33.0438 61.9694 31.3611 61.9694ZM43.0488 61.9694C41.3737 61.9694 40.0156 60.6112 40.0156 58.9286C40.0156 57.2535 41.3738 55.8878 43.0488 55.8878C44.7314 55.8878 46.0896 57.2535 46.0896 58.9286C46.0897 60.6112 44.7315 61.9694 43.0488 61.9694ZM63.3835 61.9694C61.7009 61.9694 60.3352 60.6112 60.3352 58.9286C60.3352 57.2535 61.7009 55.8878 63.3835 55.8878C65.0586 55.8878 66.4243 57.2535 66.4243 58.9286C66.4243 60.6112 65.0586 61.9694 63.3835 61.9694ZM70.0459 57.6383C70.0459 58.0383 69.729 58.3627 69.3291 58.3627H67.5182C67.2465 56.3331 65.4961 54.7561 63.3834 54.7561C61.316 54.7561 59.5278 56.3028 59.2485 58.3627H47.1837C46.9046 56.3179 45.1238 54.7561 43.0489 54.7561C40.9966 54.7561 39.2008 56.3028 38.9217 58.3627H35.4961C35.217 56.3103 33.4362 54.7561 31.3613 54.7561C29.3015 54.7561 27.5132 56.3104 27.2341 58.3627H25.1213C24.7213 58.3627 24.3969 58.0458 24.3969 57.6459V53.1564H54.2913C54.6007 53.1564 54.8572 52.9075 54.8572 52.5906V37.2509H62.2516C62.8402 37.2509 63.3834 37.5452 63.7079 38.0357L69.5253 46.9091C69.8649 47.4448 70.0459 48.056 70.0459 48.6822V57.6383Z" fill="white"/>
<path d="M62.2684 40.2351C62.1668 40.0619 61.981 39.9551 61.7799 39.9551C61.7776 39.9551 61.7755 39.9551 61.7726 39.9551L57.5393 40.0082C57.2343 40.0118 56.9875 40.2572 56.9808 40.5623L56.8297 47.3744C56.8231 47.6868 57.0707 47.9455 57.3831 47.9529L60.4241 48.0214L65.8944 48.1414H65.9069C66.1073 48.1414 66.2931 48.0354 66.3947 47.8622C66.4986 47.6861 66.4987 47.4665 66.3955 47.2897L62.2684 40.2351ZM61.4579 41.0912L64.9071 46.9875L59.393 46.8657L57.9741 46.8335L58.1008 41.1332L61.4579 41.0912Z" fill="white"/>
</svg>
