<svg width="13" height="17" viewBox="0 0 13 17" fill="none" xmlns="http://www.w3.org/2000/svg">
<path d="M0.2547 10.381C0.2547 13.7815 3.0211 16.5479 6.42154 16.5479C9.82197 16.5479 12.5887 13.7815 12.5887 10.381C12.5887 7.48152 10.5747 5.04967 7.8741 4.39397L9.56007 2.56794C9.71195 2.40338 9.7465 2.11968 9.60997 1.922L8.49096 0.233197C8.39115 0.0870819 8.22775 0 8.05359 0H4.78524C4.60651 0 4.44246 0.0898542 4.34951 0.236132L3.23245 1.91825C3.09074 2.13165 3.14078 2.41119 3.28789 2.57055L5.01037 4.38331C2.28887 5.02393 0.2547 7.46664 0.2547 10.381ZM6.26647 4.22186L5.5773 2.49619H7.34499L6.65779 4.22598C6.57878 4.22296 6.50128 4.21402 6.42154 4.21402C6.36919 4.21402 6.31851 4.22056 6.26647 4.22186ZM5.66626 1.97924L6.45839 0.739055L7.2531 1.97924H5.66626ZM7.19751 4.26832L7.90152 2.49619H8.92268L7.27546 4.28024C7.24937 4.27662 7.2237 4.27162 7.19751 4.26832ZM8.06207 0.522002L9.02356 1.97924H7.86687L6.93214 0.520249L8.06207 0.522002ZM4.78524 0.516947L5.9856 0.518802L5.05281 1.97924H3.81275L4.78524 0.516947ZM3.93889 2.49619H5.02062L5.72358 4.25637C5.68823 4.26039 5.65402 4.26779 5.61886 4.2724L3.93889 2.49619ZM6.42154 4.73096C9.53692 4.73096 12.0714 7.26563 12.0714 10.381C12.0714 13.4964 9.53692 16.0309 6.42154 16.0309C3.30616 16.0309 0.771973 13.4964 0.771973 10.381C0.771973 7.26563 3.30616 4.73096 6.42154 4.73096Z" fill="white"/>
<path d="M6.42159 14.8333C8.87684 14.8333 10.8742 12.836 10.8742 10.3809C10.8742 7.92581 8.87684 5.92847 6.42159 5.92847C3.96633 5.92847 1.96899 7.92581 1.96899 10.3809C1.96899 12.836 3.96633 14.8333 6.42159 14.8333ZM6.42159 6.44541C8.59146 6.44541 10.3569 8.21086 10.3569 10.3809C10.3569 12.5509 8.59146 14.3164 6.42159 14.3164C4.25172 14.3164 2.48627 12.5509 2.48627 10.3809C2.48627 8.21086 4.25172 6.44541 6.42159 6.44541Z" fill="white"/>
</svg>
