<svg width="27" height="27" viewBox="0 0 27 27" fill="none" xmlns="http://www.w3.org/2000/svg">
<path d="M21.5748 3.34474C19.418 1.18784 16.5502 0 13.5 0C10.4497 0 7.5819 1.18784 5.42506 3.34474C3.26817 5.50168 2.08032 8.36938 2.08032 11.4196C2.08032 17.5902 7.91476 22.7225 11.0492 25.4798C11.4848 25.863 11.861 26.1939 12.1607 26.4738C12.5361 26.8246 13.0181 26.9999 13.4999 26.9999C13.9819 26.9999 14.4637 26.8246 14.8392 26.4738C15.1389 26.1938 15.5151 25.863 15.9506 25.4798C19.0851 22.7225 24.9196 17.5902 24.9196 11.4196C24.9195 8.36938 23.7317 5.50168 21.5748 3.34474ZM14.906 24.2923C14.4608 24.6839 14.0765 25.0221 13.7595 25.3181C13.6139 25.454 13.3859 25.454 13.2403 25.3181C12.9234 25.022 12.5389 24.6839 12.0938 24.2923C9.14701 21.7001 3.66183 16.875 3.66183 11.4197C3.66183 5.99496 8.07512 1.58167 13.4999 1.58167C18.9246 1.58167 23.3379 5.99496 23.3379 11.4197C23.3379 16.875 17.8528 21.7001 14.906 24.2923Z" fill="#1D1A15"/>
<path d="M13.5 5.95581C10.7251 5.95581 8.46753 8.21332 8.46753 10.9883C8.46753 13.7632 10.7251 16.0207 13.5 16.0207C16.275 16.0207 18.5325 13.7632 18.5325 10.9883C18.5325 8.21332 16.275 5.95581 13.5 5.95581ZM13.5 14.439C11.5972 14.439 10.0491 12.891 10.0491 10.9882C10.0491 9.08544 11.5972 7.53737 13.5 7.53737C15.4029 7.53737 16.9509 9.08544 16.9509 10.9882C16.9509 12.891 15.4029 14.439 13.5 14.439Z" fill="#1D1A15"/>
</svg>
