<svg width="94" height="94" viewBox="0 0 94 94" fill="none" xmlns="http://www.w3.org/2000/svg">
<circle cx="46.9313" cy="46.9313" r="46.9313" fill="#523A33"/>
<path d="M47.1197 29.683C52.3215 29.683 56.5536 33.915 56.5536 39.1169V43.7363C56.5536 44.0508 56.2983 44.3059 55.9837 44.3059H52.8212C52.5066 44.3059 52.2515 44.0508 52.2515 43.7363V39.1169C52.2515 36.2873 49.9495 33.9851 47.1198 33.9851C44.2901 33.9851 41.9881 36.2873 41.9881 39.1169V43.7363C41.9881 44.0508 41.7327 44.3059 41.4181 44.3059H38.2555C37.9409 44.3059 37.6859 44.0508 37.6859 43.7363V39.1169C37.6858 33.915 41.9178 29.683 47.1197 29.683ZM38.8251 43.1666H40.8486V39.1169C40.8486 35.659 43.6618 32.8458 47.1196 32.8458C50.5774 32.8458 53.3906 35.659 53.3906 39.1169V43.1666H55.4141V39.1169C55.4141 34.5432 51.6933 30.8223 47.1197 30.8223C42.546 30.8223 38.8251 34.5432 38.8251 39.1169V43.1666Z" fill="white"/>
<path d="M36.9436 43.1666H57.2956C58.645 43.1666 59.7429 44.2645 59.7429 45.6139V60.9299C59.7429 62.2794 58.645 63.3773 57.2956 63.3773H36.9436C35.5941 63.3773 34.4963 62.2794 34.4963 60.9299V45.6139C34.4963 44.2645 35.5941 43.1666 36.9436 43.1666ZM35.6356 60.9299C35.6356 61.6511 36.2224 62.2379 36.9436 62.2379H57.2956C58.0169 62.2379 58.6036 61.6511 58.6036 60.9299V45.6139C58.6036 44.8927 58.0169 44.3059 57.2956 44.3059H36.9436C36.2224 44.3059 35.6356 44.8927 35.6356 45.6139V60.9299Z" fill="white"/>
<path d="M45.204 54.018C44.5384 53.4572 44.1511 52.6374 44.1511 51.7564C44.1511 50.1196 45.4829 48.7878 47.1197 48.7878C48.7567 48.7878 50.0884 50.1196 50.0884 51.7564C50.0884 52.6374 49.7011 53.4572 49.0354 54.0181L49.6758 57.0691C49.711 57.2372 49.6687 57.4121 49.5605 57.5453C49.4523 57.6785 49.2899 57.7559 49.1183 57.7559H45.1212C44.9495 57.7559 44.7871 57.6785 44.679 57.5453C44.5709 57.412 44.5286 57.2371 44.5638 57.0693L45.204 54.018ZM46.1423 53.2966C46.3424 53.424 46.4428 53.6621 46.394 53.8942L45.8228 56.6165H48.4166L47.8453 53.8944C47.7966 53.6622 47.8967 53.4242 48.0969 53.2968C48.6305 52.9572 48.949 52.3813 48.949 51.7565C48.949 50.7478 48.1285 49.9273 47.1197 49.9273C46.1111 49.9273 45.2905 50.7478 45.2905 51.7565C45.2904 52.3815 45.6089 52.9572 46.1423 53.2966Z" fill="white"/>
</svg>
