<svg width="87" height="72" viewBox="0 0 87 72" fill="none" xmlns="http://www.w3.org/2000/svg">
<path d="M35.6923 72H4.46154C2.00145 72 0 70.0124 0 67.5692V38.7692C0 36.3261 2.00145 34.3385 4.46154 34.3385H22.9468C20.8561 24.1492 11.6908 16.6154 1.11538 16.6154C0.499469 16.6154 0 16.1196 0 15.5077V1.1077C0 0.495804 0.499469 0 1.11538 0C22.6412 0 40.1538 17.3919 40.1538 38.7692V67.5692C40.1538 70.0124 38.1524 72 35.6923 72ZM37.9231 38.7692C37.9231 18.9836 22.013 2.81931 2.23077 2.23178V14.425C7.76754 14.6752 13.0607 16.7807 17.2423 20.4181C21.6574 24.2585 24.5458 29.5397 25.3759 35.2889C25.4218 35.607 25.3266 35.9291 25.1147 36.1717C24.9027 36.4145 24.5951 36.5538 24.2719 36.5538H4.46154C3.23149 36.5538 2.23077 37.5477 2.23077 38.7692V67.5692C2.23077 68.7908 3.23149 69.7846 4.46154 69.7846H35.6923C36.9224 69.7846 37.9231 68.7908 37.9231 67.5692V38.7692ZM82.5385 72H51.3077C48.8476 72 46.8462 70.0124 46.8462 67.5692V38.7692C46.8462 36.3261 48.8476 34.3385 51.3077 34.3385H69.7939C67.7032 24.1492 58.5376 16.6154 47.9615 16.6154C47.3454 16.6154 46.8462 16.1196 46.8462 15.5077V1.1077C46.8462 0.495804 47.3454 0 47.9615 0C69.4874 0 87 17.3919 87 38.7692V67.5692C87 70.0124 84.9988 72 82.5385 72ZM84.7692 38.7692C84.7692 18.9836 68.8592 2.81931 49.0769 2.23178V14.425C54.6137 14.6749 59.9071 16.7807 64.0889 20.4181C68.5042 24.2585 71.3929 29.5397 72.2229 35.2889C72.2689 35.607 72.1734 35.9291 71.9617 36.1717C71.7498 36.4145 71.4424 36.5538 71.1189 36.5538H51.3077C50.0776 36.5538 49.0769 37.5477 49.0769 38.7692V67.5692C49.0769 68.7908 50.0776 69.7846 51.3077 69.7846H82.5385C83.7685 69.7846 84.7692 68.7908 84.7692 67.5692V38.7692Z" fill="#E1DBCB"/>
</svg>
